<svg width="63" height="49" viewBox="0 0 63 49" fill="none" xmlns="http://www.w3.org/2000/svg">
<path d="M1.98874 16.5664L1.74988 12.0087L23.2233 10.8833L23.4621 15.441L15.4575 15.8605L16.5889 37.4488L11.1248 37.7352L9.99338 16.1469L1.98874 16.5664Z" fill="url(#paint0_linear_1327_93)"/>
<path d="M15.2978 37.9566L17.7654 18.4759L23.0034 19.1394L22.5728 22.5384L22.7758 22.5641C23.284 21.4 23.9958 20.5623 24.911 20.0511C25.8274 19.5315 26.8309 19.3407 27.9216 19.4789C28.1921 19.5132 28.4817 19.567 28.7903 19.6405C29.0988 19.7139 29.3677 19.7952 29.597 19.8844L28.9897 24.6785C28.7457 24.5702 28.4034 24.4582 27.9627 24.3422C27.5221 24.2263 27.1158 24.1447 26.7438 24.0976C25.949 23.9969 25.2168 24.0803 24.5472 24.3477C23.8871 24.6077 23.3367 25.0191 22.8961 25.5818C22.4638 26.1456 22.1974 26.8249 22.0967 27.6197L20.7006 38.641L15.2978 37.9566Z" fill="url(#paint1_linear_1327_93)"/>
<path d="M36.3385 36.2345C34.3273 36.4208 32.5583 36.1737 31.0317 35.4934C29.5128 34.8039 28.2934 33.7442 27.3735 32.3144C26.4529 30.8761 25.8971 29.1259 25.7061 27.0637C25.5198 25.0524 25.7468 23.2511 26.3868 21.6597C27.0269 20.0683 28.0163 18.7827 29.3549 17.8028C30.702 16.8221 32.3346 16.243 34.2525 16.0654C35.5424 15.9459 36.7625 16.0426 37.9127 16.3555C39.0707 16.6591 40.1036 17.184 41.0115 17.9302C41.9279 18.6755 42.6772 19.6504 43.2595 20.8547C43.841 22.0504 44.2087 23.48 44.3628 25.1433L44.5007 26.6327L27.9904 28.1617L27.6792 24.8011L39.0849 23.7448C39.0126 22.9641 38.7788 22.2881 38.3836 21.717C37.9883 21.1459 37.4737 20.7186 36.8397 20.4349C36.2135 20.142 35.5057 20.032 34.7165 20.1051C33.8933 20.1814 33.1811 20.4399 32.58 20.8807C31.9866 21.3123 31.5412 21.8628 31.2437 22.5323C30.9454 23.1933 30.8278 23.9103 30.8908 24.6834L31.1867 27.8785C31.2763 28.846 31.5319 29.6654 31.9536 30.3367C32.3837 31.0073 32.9474 31.5029 33.6447 31.8235C34.3421 32.1441 35.1447 32.2623 36.0528 32.1782C36.6553 32.1224 37.1991 31.9865 37.6841 31.7704C38.169 31.5543 38.574 31.26 38.899 30.8876C39.224 30.5151 39.4571 30.0741 39.5982 29.5646L44.6443 29.4311C44.5013 30.6598 44.0768 31.7604 43.3709 32.7331C42.6727 33.6964 41.7272 34.4858 40.5346 35.1013C39.3496 35.7074 37.951 36.0852 36.3385 36.2345Z" fill="url(#paint2_linear_1327_93)"/>
<path d="M49.1089 33.3416L49.1217 26.8089H49.9143L56.2041 19.3558H62.4555L54.0052 29.2251H52.714L49.1089 33.3416ZM44.1743 38.9922V12.8104H49.6203V38.9922H44.1743ZM56.447 38.9922L50.6686 30.4396L54.2993 26.5916L62.8263 38.9922H56.447Z" fill="url(#paint3_linear_1327_93)"/>
<defs>
<linearGradient id="paint0_linear_1327_93" x1="12.4946" y1="2.61533" x2="14.7974" y2="46.555" gradientUnits="userSpaceOnUse">
<stop stop-color="#007AFF"/>
<stop offset="1" stop-color="#00D4FF"/>
</linearGradient>
<linearGradient id="paint1_linear_1327_93" x1="24.9806" y1="3.90344" x2="19.4513" y2="47.5546" gradientUnits="userSpaceOnUse">
<stop stop-color="#00D4FF"/>
<stop offset="1" stop-color="#00FF94"/>
</linearGradient>
<linearGradient id="paint2_linear_1327_93" x1="32.9541" y1="1.01301" x2="37.0115" y2="44.8255" gradientUnits="userSpaceOnUse">
<stop stop-color="#FF3B7D"/>
<stop offset="1" stop-color="#FF7A00"/>
</linearGradient>
<linearGradient id="paint3_linear_1327_93" x1="52.501" y1="3.99219" x2="52.501" y2="47.9922" gradientUnits="userSpaceOnUse">
<stop stop-color="#FF7A00"/>
<stop offset="1" stop-color="#FFD600"/>
</linearGradient>
</defs>
</svg>
